<svg viewBox="0 0 970 200" xmlns="http://www.w3.org/2000/svg"><g fill="none" transform="translate(-1)"><path d="m158.89468 130.62487c4.251606-.36971 7.800068-3.39683 8.83512-7.53706l15.37511-61.50044c.717592-2.8703693.127265-5.9111588-1.612209-8.3045222s-4.449503-3.8935742-7.401201-4.0971378l-117.71107-8.118-16.02123-16.02121c2.2738113-8.7532882-1.6139711-17.94264136-9.4795072-22.40622874-7.8655362-4.46358738-17.7483056-3.08883954-24.09697268 3.35202206-6.34866706 6.44086158-7.58079767 16.34242298-3.00428111 24.14279268 4.57651655 7.8003697 13.82096279 11.5552702 22.54056099 9.155504l16.23264 16.23267 7.04675 70.46748-26.05031 34.1771c-8.2549112-1.06077-16.30400636 3.101228-20.21037884 10.450313-3.90637248 7.349084-2.85352697 16.349178 2.64357749 22.598228 5.49710445 6.249051 14.28948365 8.440907 22.07668215 5.503504 7.7871985-2.937402 12.9415653-10.390097 12.9420392-18.712885.0031978-2.649474-.5217247-5.273012-1.54409-7.71729l15.34338-20.12993 78.92571 30.85371c1.358981 8.951813 8.561369 15.874634 17.559944 16.87834 8.998576 1.003707 17.549325-4.162 20.847348-12.594368 3.298024-8.432367.520879-18.028581-6.770881-23.396264-7.291759-5.367684-17.279756-5.168275-24.351461.486172l-67.39662-26.34673z" fill="#21cdde"/><g fill="#fff"><path d="m324.08615 182.9643c-24.0764 0-44.036583-7.9612-59.88055-23.8836-15.848667-15.92-23.771787-35.613503-23.769361-59.08051 0-23.4623333 7.923121-43.1558367 23.769361-59.08051 15.844853-15.92038 35.805037-23.8817133 59.88055-23.884 14.036451-.1124569 27.860253 3.4322422 40.11064 10.28517 11.915601 6.5174402 21.831494 16.1566273 28.68347 27.88305l-22.85508 13.2561c-4.281444-7.9346176-10.745033-14.477619-18.62678-18.85563-8.329623-4.6925754-17.752605-7.0975564-27.31225-6.97077-17.06654 0-30.893953 5.409-41.48224 16.227-10.591827 10.8206667-15.886537 24.5338433-15.88413 41.13953 0 16.60922 5.29471 30.32227 15.88413 41.13915 10.588793 10.820667 24.416207 16.229807 41.48224 16.22742 9.594845.119184 19.052607-2.284652 27.42611-6.97077 7.90199-4.313308 14.345265-10.87586 18.51292-18.85563l22.85508 13.02725c-6.737626 11.765585-16.581507 21.451381-28.45462 27.99766-12.302049 6.943531-26.213771 10.529824-40.33949 10.39909z"/><path d="m500.27047 65.71756h24.68365v114.27581h-24.68365v-16.45589c-9.29612 12.95248-22.628377 19.428087-39.99677 19.42682-15.69494 0-29.10336-5.828-40.22526-17.484-11.12392-11.656-16.685253-25.864333-16.684-42.625 0-16.912827 5.561333-31.1592367 16.684-42.73923 11.120887-11.57746 24.529307-17.36739 40.22526-17.36979 17.37016 0 30.702417 6.39945 39.99677 19.19835zm-61.938 83.30682c6.856533 6.935087 15.46546 10.401557 25.82678 10.399411 10.359547 0 18.968213-3.466471 25.826-10.399411 6.85652-6.931293 10.28516-15.65433 10.28516-26.16911 0-10.51326-3.428387-19.236297-10.28516-26.16911-6.856533-6.9316667-15.4652-10.398-25.826-10.399-10.363333 0-18.97226 3.4663333-25.82678 10.399-6.85652 6.935093-10.28441 15.65813-10.28441 26.16911 0 10.513273 3.428177 19.23631 10.28445 26.16911z"/><path d="m565.43244 84.91591c6.24624-14.17038 17.978667-21.25538 35.19728-21.25538v26.7403c-9.449453-.6068733-17.677333 1.6405533-24.68364 6.74228-7.00986 5.106907-10.514407 13.52531-10.51364 25.25521v57.59505h-24.68327v-114.27581h24.68327z"/><path d="m686.64631 89.48693h-28.34038v54.8522c0 4.724727 1.066597 8.11491 3.19979 10.17055 2.1318 2.057033 5.29338 3.199787 9.48474 3.42826 5.217226.22474 10.442459.186616 15.65585-.11423v22.16966c-18.894727 2.2855-32.45546.647463-40.6822-4.91411-8.22776-5.560067-12.3417-15.806777-12.34182-30.74013v-54.8522h-21.02653v-23.76937h21.02653v-24.68364l24.68364-7.31386v31.9975h28.34038z"/><path d="m864.71357 100.00019c0 21.394667-6.970763 39.88469-20.91229 55.47007l16.7986 17.20925-18.51288 16.68437-17.75885-18.19488c-12.858475 7.725264-27.578022 11.802925-42.57869 11.7953-23.0088 0-42.588067-8.03736-58.7378-24.11208-16.152273-16.0737-24.22631-35.691033-24.22631-58.852 0-23.1587133 8.075437-42.7760467 24.22631-58.852 16.148473-16.0737067 35.72774-24.11246 58.7378-24.11246 23.004993 0 42.584257 8.0374867 58.73779 24.11246 16.1485 16.07708 24.22394 35.6944033 24.22632 58.85197zm-83.06051 57.36762c8.290404.050367 16.483705-1.786404 23.95874-5.37211l-29.11916-29.82585 18.51292-16.68436 30.71849 31.46881c8.471027-10.556527 12.70655-22.874563 12.70655-36.95411 0-16.30218-5.485423-29.9390733-16.45627-40.91068-10.970213-10.9705867-24.378503-16.45589-40.22487-16.45589-15.848667 0-29.25696 5.4852967-40.22488 16.45589-10.970593 10.9702133-16.45589 24.6071067-16.45589 40.91068 0 16.3056 5.475683 29.942493 16.42705 40.91068 10.94934 10.970593 24.335113 16.45694 40.15732 16.45694z"/><path d="m905.13675 154.85239h65.137v25.141h-91.42035v-159.98639h26.28335z"/></g></g></svg>